<svg xmlns="http://www.w3.org/2000/svg" width="9.43" height="12.593" viewBox="0 0 9.43 12.593">
  <path id="ic_directions_run_24px" d="M9.1,3.823A1.171,1.171,0,1,0,7.927,2.651,1.175,1.175,0,0,0,9.1,3.823ZM6.99,11.964l.586-2.577,1.23,1.171v3.514H9.977V9.68L8.747,8.508,9.1,6.751A4.289,4.289,0,0,0,12.32,8.216V7.044A2.881,2.881,0,0,1,9.8,5.639L9.216,4.7a1.208,1.208,0,0,0-1-.586c-.176,0-.293.059-.469.059L4.706,5.463V8.216H5.877V6.224l1.054-.41-.937,4.744-2.87-.586L2.89,11.144Z" transform="translate(-2.89 -1.48)" fill="#ff0d5e"/>
</svg>
